<svg width="29" height="29" viewBox="0 0 29 29" fill="none" xmlns="http://www.w3.org/2000/svg">
<g id="magnifier 1">
<path id="Vector" d="M25.5588 23.7848L21.3311 19.5767C22.9721 17.5234 23.7669 14.9173 23.5518 12.2941C23.3368 9.67089 22.1284 7.23007 20.1751 5.47349C18.2217 3.71692 15.6719 2.77811 13.05 2.85011C10.4281 2.9221 7.93326 3.99943 6.07857 5.86057C4.22389 7.7217 3.15029 10.2252 3.07855 12.8562C3.0068 15.4873 3.94236 18.046 5.69284 20.0061C7.44333 21.9662 9.87569 23.1788 12.4898 23.3946C15.1039 23.6104 17.701 22.8129 19.7471 21.1662L23.9406 25.3742C24.0466 25.4814 24.1726 25.5665 24.3115 25.6245C24.4503 25.6826 24.5993 25.7125 24.7497 25.7125C24.9001 25.7125 25.0491 25.6826 25.1879 25.6245C25.3268 25.5665 25.4528 25.4814 25.5588 25.3742C25.7642 25.161 25.879 24.8761 25.879 24.5795C25.879 24.2829 25.7642 23.998 25.5588 23.7848ZM13.3543 21.1662C11.7767 21.1662 10.2345 20.6967 8.9227 19.8172C7.61093 18.9376 6.58853 17.6875 5.98479 16.2248C5.38105 14.7622 5.22308 13.1528 5.53087 11.6001C5.83865 10.0473 6.59836 8.62107 7.71393 7.50162C8.8295 6.38217 10.2508 5.61981 11.7982 5.31096C13.3455 5.0021 14.9494 5.16062 16.4069 5.76646C17.8645 6.3723 19.1103 7.39826 19.9868 8.71459C20.8633 10.0309 21.3311 11.5785 21.3311 13.1617C21.3311 15.2846 20.4907 17.3206 18.9948 18.8217C17.4988 20.3228 15.4699 21.1662 13.3543 21.1662Z" fill="#3D3D3D"/>
</g>
</svg>
