<svg width="31" height="31" viewBox="0 0 31 31" fill="none" xmlns="http://www.w3.org/2000/svg">
<g id="shopping">
<path id="Vector" d="M8.80713 27.6725C8.12098 27.6725 7.53337 27.4271 7.04433 26.9364C6.55529 26.4457 6.31118 25.8564 6.31201 25.1687C6.31201 24.4802 6.55654 23.8905 7.04558 23.3998C7.53462 22.909 8.12181 22.6641 8.80713 22.6649C9.49329 22.6649 10.0809 22.9103 10.5699 23.401C11.059 23.8918 11.3031 24.481 11.3023 25.1687C11.3023 25.8573 11.0577 26.4469 10.5687 26.9377C10.0796 27.4284 9.49246 27.6734 8.80713 27.6725ZM21.2827 27.6725C20.5966 27.6725 20.009 27.4271 19.5199 26.9364C19.0309 26.4457 18.7868 25.8564 18.7876 25.1687C18.7876 24.4802 19.0321 23.8905 19.5212 23.3998C20.0102 22.909 20.5974 22.6641 21.2827 22.6649C21.9689 22.6649 22.5565 22.9103 23.0455 23.401C23.5346 23.8918 23.7787 24.481 23.7778 25.1687C23.7778 25.8573 23.5333 26.4469 23.0443 26.9377C22.5552 27.4284 21.9681 27.6734 21.2827 27.6725ZM7.74671 7.64212L10.7408 13.9016H19.4738L22.9046 7.64212H7.74671ZM8.80713 21.413C7.87146 21.413 7.16451 21.0007 6.68628 20.1761C6.20805 19.3516 6.18726 18.5328 6.6239 17.7199L8.30811 14.6528L3.8169 5.13833H2.53815C2.18467 5.13833 1.89358 5.01814 1.66486 4.77778C1.43614 4.53741 1.32178 4.2403 1.32178 3.88643C1.32178 3.53172 1.44154 3.23419 1.68107 2.99382C1.92061 2.75346 2.21669 2.63369 2.56934 2.63453H4.59662C4.82534 2.63453 5.04366 2.69712 5.25159 2.82231C5.45952 2.9475 5.61546 3.12485 5.71942 3.35437L6.56153 5.13833H24.963C25.5244 5.13833 25.9091 5.34698 26.117 5.76428C26.3249 6.18158 26.3145 6.61974 26.0858 7.07877L21.657 15.0909C21.4283 15.5082 21.1268 15.8316 20.7525 16.0612C20.3782 16.2907 19.952 16.4054 19.4738 16.4054H10.1794L8.80713 18.9092H22.5615C22.9149 18.9092 23.206 19.0294 23.4348 19.2698C23.6635 19.5101 23.7778 19.8073 23.7778 20.1611C23.7778 20.5158 23.6581 20.8134 23.4185 21.0537C23.179 21.2941 22.8829 21.4139 22.5303 21.413H8.80713Z" fill="#353535"/>
</g>
</svg>
